<mxfile host="app.diagrams.net" modified="2022-09-11T16:54:42.129Z" agent="5.0 (Windows NT 10.0; Win64; x64) AppleWebKit/537.36 (KHTML, like Gecko) Chrome/104.0.5112.102 Safari/537.36 OPR/90.0.4480.78" etag="f8ne33DxXfJNkWt1SrQ3" version="20.3.0" type="github">
  <diagram id="lgBU8QAUktvvbeDi8el8" name="Страница 1">
    <mxGraphModel dx="2302" dy="1273" grid="1" gridSize="10" guides="1" tooltips="1" connect="1" arrows="1" fold="1" page="1" pageScale="1" pageWidth="827" pageHeight="1169" math="0" shadow="0">
      <root>
        <mxCell id="0" />
        <mxCell id="1" parent="0" />
        <mxCell id="Ek-aGh3pe6eO3Bai1jZO-234" value="" style="edgeStyle=none;rounded=0;jumpStyle=none;html=1;shadow=0;labelBackgroundColor=none;startArrow=none;startFill=0;endArrow=classic;endFill=1;jettySize=auto;orthogonalLoop=1;strokeColor=#2F5B7C;strokeWidth=3;fontFamily=Helvetica;fontSize=16;fontColor=#23445D;spacing=5;" edge="1" parent="1" source="Ek-aGh3pe6eO3Bai1jZO-238" target="Ek-aGh3pe6eO3Bai1jZO-241">
          <mxGeometry relative="1" as="geometry" />
        </mxCell>
        <mxCell id="Ek-aGh3pe6eO3Bai1jZO-235" value="" style="edgeStyle=none;rounded=0;jumpStyle=none;html=1;shadow=0;labelBackgroundColor=none;startArrow=none;startFill=0;endArrow=classic;endFill=1;jettySize=auto;orthogonalLoop=1;strokeColor=#2F5B7C;strokeWidth=3;fontFamily=Helvetica;fontSize=16;fontColor=#23445D;spacing=5;" edge="1" parent="1" source="Ek-aGh3pe6eO3Bai1jZO-238" target="Ek-aGh3pe6eO3Bai1jZO-242">
          <mxGeometry relative="1" as="geometry" />
        </mxCell>
        <mxCell id="Ek-aGh3pe6eO3Bai1jZO-236" value="" style="edgeStyle=none;rounded=0;jumpStyle=none;html=1;shadow=0;labelBackgroundColor=none;startArrow=none;startFill=0;endArrow=classic;endFill=1;jettySize=auto;orthogonalLoop=1;strokeColor=#2F5B7C;strokeWidth=3;fontFamily=Helvetica;fontSize=16;fontColor=#23445D;spacing=5;" edge="1" parent="1" source="Ek-aGh3pe6eO3Bai1jZO-238" target="Ek-aGh3pe6eO3Bai1jZO-240">
          <mxGeometry relative="1" as="geometry" />
        </mxCell>
        <mxCell id="Ek-aGh3pe6eO3Bai1jZO-237" value="" style="edgeStyle=none;rounded=0;jumpStyle=none;html=1;shadow=0;labelBackgroundColor=none;startArrow=none;startFill=0;endArrow=classic;endFill=1;jettySize=auto;orthogonalLoop=1;strokeColor=#2F5B7C;strokeWidth=3;fontFamily=Helvetica;fontSize=16;fontColor=#23445D;spacing=5;" edge="1" parent="1" source="Ek-aGh3pe6eO3Bai1jZO-238" target="Ek-aGh3pe6eO3Bai1jZO-239">
          <mxGeometry relative="1" as="geometry" />
        </mxCell>
        <mxCell id="Ek-aGh3pe6eO3Bai1jZO-238" value="&lt;div&gt;&lt;br&gt;&lt;/div&gt;&lt;div&gt;Потреба у&amp;nbsp;&lt;/div&gt;&lt;span style=&quot;font-size: 12pt;&quot; data-sheets-userformat=&quot;{&amp;quot;2&amp;quot;:13289,&amp;quot;3&amp;quot;:{&amp;quot;1&amp;quot;:0},&amp;quot;6&amp;quot;:{&amp;quot;1&amp;quot;:[{&amp;quot;1&amp;quot;:2,&amp;quot;2&amp;quot;:0,&amp;quot;5&amp;quot;:{&amp;quot;1&amp;quot;:2,&amp;quot;2&amp;quot;:0}},{&amp;quot;1&amp;quot;:0,&amp;quot;2&amp;quot;:0,&amp;quot;3&amp;quot;:3},{&amp;quot;1&amp;quot;:1,&amp;quot;2&amp;quot;:0,&amp;quot;4&amp;quot;:1}]},&amp;quot;8&amp;quot;:{&amp;quot;1&amp;quot;:[{&amp;quot;1&amp;quot;:2,&amp;quot;2&amp;quot;:0,&amp;quot;5&amp;quot;:{&amp;quot;1&amp;quot;:2,&amp;quot;2&amp;quot;:0}},{&amp;quot;1&amp;quot;:0,&amp;quot;2&amp;quot;:0,&amp;quot;3&amp;quot;:3},{&amp;quot;1&amp;quot;:1,&amp;quot;2&amp;quot;:0,&amp;quot;4&amp;quot;:1}]},&amp;quot;9&amp;quot;:1,&amp;quot;10&amp;quot;:0,&amp;quot;11&amp;quot;:4,&amp;quot;12&amp;quot;:0,&amp;quot;15&amp;quot;:&amp;quot;\&amp;quot;Times New Roman\&amp;quot;, serif&amp;quot;,&amp;quot;16&amp;quot;:12}&quot; data-sheets-value=&quot;{&amp;quot;1&amp;quot;:2,&amp;quot;2&amp;quot;:&amp;quot;чистота повітря навколишнього середовища&amp;quot;}&quot;&gt;чистоті повітря навколишнього середовища для кращого стану&amp;nbsp;&lt;/span&gt;&lt;span style=&quot;font-size: 12pt;&quot; data-sheets-userformat=&quot;{&amp;quot;2&amp;quot;:13289,&amp;quot;3&amp;quot;:{&amp;quot;1&amp;quot;:0},&amp;quot;6&amp;quot;:{&amp;quot;1&amp;quot;:[{&amp;quot;1&amp;quot;:2,&amp;quot;2&amp;quot;:0,&amp;quot;5&amp;quot;:{&amp;quot;1&amp;quot;:2,&amp;quot;2&amp;quot;:0}},{&amp;quot;1&amp;quot;:0,&amp;quot;2&amp;quot;:0,&amp;quot;3&amp;quot;:3},{&amp;quot;1&amp;quot;:1,&amp;quot;2&amp;quot;:0,&amp;quot;4&amp;quot;:1}]},&amp;quot;8&amp;quot;:{&amp;quot;1&amp;quot;:[{&amp;quot;1&amp;quot;:2,&amp;quot;2&amp;quot;:0,&amp;quot;5&amp;quot;:{&amp;quot;1&amp;quot;:2,&amp;quot;2&amp;quot;:0}},{&amp;quot;1&amp;quot;:0,&amp;quot;2&amp;quot;:0,&amp;quot;3&amp;quot;:3},{&amp;quot;1&amp;quot;:1,&amp;quot;2&amp;quot;:0,&amp;quot;4&amp;quot;:1}]},&amp;quot;9&amp;quot;:1,&amp;quot;10&amp;quot;:0,&amp;quot;11&amp;quot;:4,&amp;quot;12&amp;quot;:0,&amp;quot;15&amp;quot;:&amp;quot;\&amp;quot;Times New Roman\&amp;quot;, serif&amp;quot;,&amp;quot;16&amp;quot;:12}&quot; data-sheets-value=&quot;{&amp;quot;1&amp;quot;:2,&amp;quot;2&amp;quot;:&amp;quot;стан фізичного здоров&#39;я&amp;quot;}&quot;&gt;фізичного здоров&#39;я&amp;nbsp;&lt;span style=&quot;font-size: 12pt;&quot; data-sheets-userformat=&quot;{&amp;quot;2&amp;quot;:13289,&amp;quot;3&amp;quot;:{&amp;quot;1&amp;quot;:0},&amp;quot;6&amp;quot;:{&amp;quot;1&amp;quot;:[{&amp;quot;1&amp;quot;:2,&amp;quot;2&amp;quot;:0,&amp;quot;5&amp;quot;:{&amp;quot;1&amp;quot;:2,&amp;quot;2&amp;quot;:0}},{&amp;quot;1&amp;quot;:0,&amp;quot;2&amp;quot;:0,&amp;quot;3&amp;quot;:3},{&amp;quot;1&amp;quot;:1,&amp;quot;2&amp;quot;:0,&amp;quot;4&amp;quot;:1}]},&amp;quot;8&amp;quot;:{&amp;quot;1&amp;quot;:[{&amp;quot;1&amp;quot;:2,&amp;quot;2&amp;quot;:0,&amp;quot;5&amp;quot;:{&amp;quot;1&amp;quot;:2,&amp;quot;2&amp;quot;:0}},{&amp;quot;1&amp;quot;:0,&amp;quot;2&amp;quot;:0,&amp;quot;3&amp;quot;:3},{&amp;quot;1&amp;quot;:1,&amp;quot;2&amp;quot;:0,&amp;quot;4&amp;quot;:1}]},&amp;quot;9&amp;quot;:1,&amp;quot;10&amp;quot;:0,&amp;quot;11&amp;quot;:4,&amp;quot;12&amp;quot;:0,&amp;quot;15&amp;quot;:&amp;quot;\&amp;quot;Times New Roman\&amp;quot;, serif&amp;quot;,&amp;quot;16&amp;quot;:12}&quot; data-sheets-value=&quot;{&amp;quot;1&amp;quot;:2,&amp;quot;2&amp;quot;:&amp;quot;професійне спілкування&amp;quot;}&quot;&gt;та у професійному спілкуванні про&amp;nbsp;&lt;span style=&quot;font-size: 12pt;&quot; data-sheets-userformat=&quot;{&amp;quot;2&amp;quot;:13033,&amp;quot;3&amp;quot;:{&amp;quot;1&amp;quot;:0},&amp;quot;6&amp;quot;:{&amp;quot;1&amp;quot;:[{&amp;quot;1&amp;quot;:2,&amp;quot;2&amp;quot;:0,&amp;quot;5&amp;quot;:{&amp;quot;1&amp;quot;:2,&amp;quot;2&amp;quot;:0}},{&amp;quot;1&amp;quot;:0,&amp;quot;2&amp;quot;:0,&amp;quot;3&amp;quot;:3},{&amp;quot;1&amp;quot;:1,&amp;quot;2&amp;quot;:0,&amp;quot;4&amp;quot;:1}]},&amp;quot;8&amp;quot;:{&amp;quot;1&amp;quot;:[{&amp;quot;1&amp;quot;:2,&amp;quot;2&amp;quot;:0,&amp;quot;5&amp;quot;:{&amp;quot;1&amp;quot;:2,&amp;quot;2&amp;quot;:0}},{&amp;quot;1&amp;quot;:0,&amp;quot;2&amp;quot;:0,&amp;quot;3&amp;quot;:3},{&amp;quot;1&amp;quot;:1,&amp;quot;2&amp;quot;:0,&amp;quot;4&amp;quot;:1}]},&amp;quot;9&amp;quot;:1,&amp;quot;10&amp;quot;:0,&amp;quot;12&amp;quot;:0,&amp;quot;15&amp;quot;:&amp;quot;\&amp;quot;Times New Roman\&amp;quot;, serif&amp;quot;,&amp;quot;16&amp;quot;:12}&quot; data-sheets-value=&quot;{&amp;quot;1&amp;quot;:2,&amp;quot;2&amp;quot;:&amp;quot;зацікавленість архітектурою&amp;quot;}&quot;&gt;архітектуру&amp;nbsp;&lt;/span&gt;&lt;br&gt;&lt;/span&gt;&lt;br&gt;&lt;br&gt;&lt;/span&gt;" style="rounded=1;whiteSpace=wrap;html=1;shadow=0;labelBackgroundColor=none;strokeColor=none;strokeWidth=3;fillColor=#2F5B7C;fontFamily=Helvetica;fontSize=16;fontColor=#FFFFFF;align=center;fontStyle=1;spacing=5;arcSize=3;perimeterSpacing=2;" vertex="1" parent="1">
          <mxGeometry x="739" y="486" width="380" height="145" as="geometry" />
        </mxCell>
        <mxCell id="Ek-aGh3pe6eO3Bai1jZO-239" value="&lt;span style=&quot;font-size: 12pt;&quot; data-sheets-userformat=&quot;{&amp;quot;2&amp;quot;:13289,&amp;quot;3&amp;quot;:{&amp;quot;1&amp;quot;:0},&amp;quot;6&amp;quot;:{&amp;quot;1&amp;quot;:[{&amp;quot;1&amp;quot;:2,&amp;quot;2&amp;quot;:0,&amp;quot;5&amp;quot;:{&amp;quot;1&amp;quot;:2,&amp;quot;2&amp;quot;:0}},{&amp;quot;1&amp;quot;:0,&amp;quot;2&amp;quot;:0,&amp;quot;3&amp;quot;:3},{&amp;quot;1&amp;quot;:1,&amp;quot;2&amp;quot;:0,&amp;quot;4&amp;quot;:1}]},&amp;quot;8&amp;quot;:{&amp;quot;1&amp;quot;:[{&amp;quot;1&amp;quot;:2,&amp;quot;2&amp;quot;:0,&amp;quot;5&amp;quot;:{&amp;quot;1&amp;quot;:2,&amp;quot;2&amp;quot;:0}},{&amp;quot;1&amp;quot;:0,&amp;quot;2&amp;quot;:0,&amp;quot;3&amp;quot;:3},{&amp;quot;1&amp;quot;:1,&amp;quot;2&amp;quot;:0,&amp;quot;4&amp;quot;:1}]},&amp;quot;9&amp;quot;:1,&amp;quot;10&amp;quot;:0,&amp;quot;11&amp;quot;:4,&amp;quot;12&amp;quot;:0,&amp;quot;15&amp;quot;:&amp;quot;\&amp;quot;Times New Roman\&amp;quot;, serif&amp;quot;,&amp;quot;16&amp;quot;:12}&quot; data-sheets-value=&quot;{&amp;quot;1&amp;quot;:2,&amp;quot;2&amp;quot;:&amp;quot;професійне спілкування&amp;quot;}&quot;&gt;Професійне спілкування&lt;/span&gt;" style="rounded=1;whiteSpace=wrap;html=1;shadow=0;labelBackgroundColor=none;strokeColor=none;strokeWidth=3;fillColor=#e85642;fontFamily=Helvetica;fontSize=14;fontColor=#FFFFFF;align=center;spacing=5;fontStyle=1;arcSize=7;perimeterSpacing=2;" vertex="1" parent="1">
          <mxGeometry x="515" y="520" width="148" height="79" as="geometry" />
        </mxCell>
        <mxCell id="Ek-aGh3pe6eO3Bai1jZO-240" value="&lt;span style=&quot;font-size: 12pt;&quot; data-sheets-userformat=&quot;{&amp;quot;2&amp;quot;:13289,&amp;quot;3&amp;quot;:{&amp;quot;1&amp;quot;:0},&amp;quot;6&amp;quot;:{&amp;quot;1&amp;quot;:[{&amp;quot;1&amp;quot;:2,&amp;quot;2&amp;quot;:0,&amp;quot;5&amp;quot;:{&amp;quot;1&amp;quot;:2,&amp;quot;2&amp;quot;:0}},{&amp;quot;1&amp;quot;:0,&amp;quot;2&amp;quot;:0,&amp;quot;3&amp;quot;:3},{&amp;quot;1&amp;quot;:1,&amp;quot;2&amp;quot;:0,&amp;quot;4&amp;quot;:1}]},&amp;quot;8&amp;quot;:{&amp;quot;1&amp;quot;:[{&amp;quot;1&amp;quot;:2,&amp;quot;2&amp;quot;:0,&amp;quot;5&amp;quot;:{&amp;quot;1&amp;quot;:2,&amp;quot;2&amp;quot;:0}},{&amp;quot;1&amp;quot;:0,&amp;quot;2&amp;quot;:0,&amp;quot;3&amp;quot;:3},{&amp;quot;1&amp;quot;:1,&amp;quot;2&amp;quot;:0,&amp;quot;4&amp;quot;:1}]},&amp;quot;9&amp;quot;:1,&amp;quot;10&amp;quot;:0,&amp;quot;11&amp;quot;:4,&amp;quot;12&amp;quot;:0,&amp;quot;15&amp;quot;:&amp;quot;\&amp;quot;Times New Roman\&amp;quot;, serif&amp;quot;,&amp;quot;16&amp;quot;:12}&quot; data-sheets-value=&quot;{&amp;quot;1&amp;quot;:2,&amp;quot;2&amp;quot;:&amp;quot;стан фізичного здоров&#39;я&amp;quot;}&quot;&gt;Стан фізичного здоров&#39;я&lt;/span&gt;" style="rounded=1;whiteSpace=wrap;html=1;shadow=0;labelBackgroundColor=none;strokeColor=none;strokeWidth=3;fillColor=#1699d3;fontFamily=Helvetica;fontSize=14;fontColor=#FFFFFF;align=center;spacing=5;fontStyle=1;arcSize=7;perimeterSpacing=2;" vertex="1" parent="1">
          <mxGeometry x="853" y="678" width="160" height="74" as="geometry" />
        </mxCell>
        <mxCell id="Ek-aGh3pe6eO3Bai1jZO-241" value="&lt;span style=&quot;font-size: 12pt;&quot; data-sheets-userformat=&quot;{&amp;quot;2&amp;quot;:13033,&amp;quot;3&amp;quot;:{&amp;quot;1&amp;quot;:0},&amp;quot;6&amp;quot;:{&amp;quot;1&amp;quot;:[{&amp;quot;1&amp;quot;:2,&amp;quot;2&amp;quot;:0,&amp;quot;5&amp;quot;:{&amp;quot;1&amp;quot;:2,&amp;quot;2&amp;quot;:0}},{&amp;quot;1&amp;quot;:0,&amp;quot;2&amp;quot;:0,&amp;quot;3&amp;quot;:3},{&amp;quot;1&amp;quot;:1,&amp;quot;2&amp;quot;:0,&amp;quot;4&amp;quot;:1}]},&amp;quot;8&amp;quot;:{&amp;quot;1&amp;quot;:[{&amp;quot;1&amp;quot;:2,&amp;quot;2&amp;quot;:0,&amp;quot;5&amp;quot;:{&amp;quot;1&amp;quot;:2,&amp;quot;2&amp;quot;:0}},{&amp;quot;1&amp;quot;:0,&amp;quot;2&amp;quot;:0,&amp;quot;3&amp;quot;:3},{&amp;quot;1&amp;quot;:1,&amp;quot;2&amp;quot;:0,&amp;quot;4&amp;quot;:1}]},&amp;quot;9&amp;quot;:1,&amp;quot;10&amp;quot;:0,&amp;quot;12&amp;quot;:0,&amp;quot;15&amp;quot;:&amp;quot;\&amp;quot;Times New Roman\&amp;quot;, serif&amp;quot;,&amp;quot;16&amp;quot;:12}&quot; data-sheets-value=&quot;{&amp;quot;1&amp;quot;:2,&amp;quot;2&amp;quot;:&amp;quot;зацікавленість архітектурою&amp;quot;}&quot;&gt;Зацікавленість архітектурою&lt;/span&gt;" style="rounded=1;whiteSpace=wrap;html=1;shadow=0;labelBackgroundColor=none;strokeColor=none;strokeWidth=3;fillColor=#F08705;fontFamily=Helvetica;fontSize=14;fontColor=#FFFFFF;align=center;spacing=5;fontStyle=1;arcSize=7;perimeterSpacing=2;" vertex="1" parent="1">
          <mxGeometry x="852" y="360.5" width="160" height="73" as="geometry" />
        </mxCell>
        <mxCell id="Ek-aGh3pe6eO3Bai1jZO-242" value="&lt;span style=&quot;font-size: 12pt;&quot; data-sheets-userformat=&quot;{&amp;quot;2&amp;quot;:13289,&amp;quot;3&amp;quot;:{&amp;quot;1&amp;quot;:0},&amp;quot;6&amp;quot;:{&amp;quot;1&amp;quot;:[{&amp;quot;1&amp;quot;:2,&amp;quot;2&amp;quot;:0,&amp;quot;5&amp;quot;:{&amp;quot;1&amp;quot;:2,&amp;quot;2&amp;quot;:0}},{&amp;quot;1&amp;quot;:0,&amp;quot;2&amp;quot;:0,&amp;quot;3&amp;quot;:3},{&amp;quot;1&amp;quot;:1,&amp;quot;2&amp;quot;:0,&amp;quot;4&amp;quot;:1}]},&amp;quot;8&amp;quot;:{&amp;quot;1&amp;quot;:[{&amp;quot;1&amp;quot;:2,&amp;quot;2&amp;quot;:0,&amp;quot;5&amp;quot;:{&amp;quot;1&amp;quot;:2,&amp;quot;2&amp;quot;:0}},{&amp;quot;1&amp;quot;:0,&amp;quot;2&amp;quot;:0,&amp;quot;3&amp;quot;:3},{&amp;quot;1&amp;quot;:1,&amp;quot;2&amp;quot;:0,&amp;quot;4&amp;quot;:1}]},&amp;quot;9&amp;quot;:1,&amp;quot;10&amp;quot;:0,&amp;quot;11&amp;quot;:4,&amp;quot;12&amp;quot;:0,&amp;quot;15&amp;quot;:&amp;quot;\&amp;quot;Times New Roman\&amp;quot;, serif&amp;quot;,&amp;quot;16&amp;quot;:12}&quot; data-sheets-value=&quot;{&amp;quot;1&amp;quot;:2,&amp;quot;2&amp;quot;:&amp;quot;чистота повітря навколишнього середовища&amp;quot;}&quot;&gt;Чистота повітря навколишнього середовища&lt;/span&gt;" style="rounded=1;whiteSpace=wrap;html=1;shadow=0;labelBackgroundColor=none;strokeColor=none;strokeWidth=3;fillColor=#12aab5;fontFamily=Helvetica;fontSize=14;fontColor=#FFFFFF;align=center;spacing=5;fontStyle=1;arcSize=7;perimeterSpacing=2;" vertex="1" parent="1">
          <mxGeometry x="1267" y="518.5" width="147" height="80" as="geometry" />
        </mxCell>
        <mxCell id="Ek-aGh3pe6eO3Bai1jZO-261" value="Що?" style="rounded=1;whiteSpace=wrap;html=1;shadow=0;labelBackgroundColor=none;strokeColor=none;strokeWidth=3;fillColor=#f5af58;fontFamily=Helvetica;fontSize=14;fontColor=#FFFFFF;align=center;spacing=5;arcSize=7;perimeterSpacing=2;" vertex="1" parent="1">
          <mxGeometry x="595" y="367" width="80" height="60" as="geometry" />
        </mxCell>
        <mxCell id="Ek-aGh3pe6eO3Bai1jZO-262" value="" style="edgeStyle=none;rounded=0;jumpStyle=none;html=1;shadow=0;labelBackgroundColor=none;startArrow=none;startFill=0;endArrow=classic;endFill=1;jettySize=auto;orthogonalLoop=1;strokeColor=#F08705;strokeWidth=3;fontFamily=Helvetica;fontSize=14;fontColor=#FFFFFF;spacing=5;exitX=0;exitY=0.5;exitDx=0;exitDy=0;" edge="1" parent="1" source="Ek-aGh3pe6eO3Bai1jZO-241" target="Ek-aGh3pe6eO3Bai1jZO-261">
          <mxGeometry relative="1" as="geometry">
            <mxPoint x="862" y="413" as="sourcePoint" />
          </mxGeometry>
        </mxCell>
        <mxCell id="Ek-aGh3pe6eO3Bai1jZO-265" value="" style="edgeStyle=none;rounded=0;jumpStyle=none;html=1;shadow=0;labelBackgroundColor=none;startArrow=none;startFill=0;endArrow=classic;endFill=1;jettySize=auto;orthogonalLoop=1;strokeColor=#1699D3;strokeWidth=3;fontFamily=Helvetica;fontSize=14;fontColor=#FFFFFF;spacing=5;exitX=0;exitY=0.5;exitDx=0;exitDy=0;" edge="1" parent="1" source="Ek-aGh3pe6eO3Bai1jZO-240" target="Ek-aGh3pe6eO3Bai1jZO-266">
          <mxGeometry relative="1" as="geometry">
            <mxPoint x="895.5" y="668" as="sourcePoint" />
          </mxGeometry>
        </mxCell>
        <mxCell id="Ek-aGh3pe6eO3Bai1jZO-266" value="Що?" style="rounded=1;whiteSpace=wrap;html=1;shadow=0;labelBackgroundColor=none;strokeColor=none;strokeWidth=3;fillColor=#64bbe2;fontFamily=Helvetica;fontSize=14;fontColor=#FFFFFF;align=center;spacing=5;arcSize=7;perimeterSpacing=2;" vertex="1" parent="1">
          <mxGeometry x="550" y="685" width="75" height="60" as="geometry" />
        </mxCell>
        <mxCell id="Ek-aGh3pe6eO3Bai1jZO-269" value="" style="edgeStyle=none;rounded=0;jumpStyle=none;html=1;shadow=0;labelBackgroundColor=none;startArrow=none;startFill=0;endArrow=classic;endFill=1;jettySize=auto;orthogonalLoop=1;strokeColor=#1699D3;strokeWidth=3;fontFamily=Helvetica;fontSize=14;fontColor=#FFFFFF;spacing=5;" edge="1" parent="1" source="Ek-aGh3pe6eO3Bai1jZO-240" target="Ek-aGh3pe6eO3Bai1jZO-270">
          <mxGeometry relative="1" as="geometry">
            <mxPoint x="958.7608695652175" y="744" as="sourcePoint" />
          </mxGeometry>
        </mxCell>
        <mxCell id="Ek-aGh3pe6eO3Bai1jZO-270" value="Коли?" style="rounded=1;whiteSpace=wrap;html=1;shadow=0;labelBackgroundColor=none;strokeColor=none;strokeWidth=3;fillColor=#64bbe2;fontFamily=Helvetica;fontSize=14;fontColor=#FFFFFF;align=center;spacing=5;arcSize=7;perimeterSpacing=2;" vertex="1" parent="1">
          <mxGeometry x="896" y="810" width="75" height="60" as="geometry" />
        </mxCell>
        <mxCell id="Ek-aGh3pe6eO3Bai1jZO-271" value="" style="edgeStyle=none;rounded=0;jumpStyle=none;html=1;shadow=0;labelBackgroundColor=none;startArrow=none;startFill=0;endArrow=classic;endFill=1;jettySize=auto;orthogonalLoop=1;strokeColor=#1699D3;strokeWidth=3;fontFamily=Helvetica;fontSize=14;fontColor=#FFFFFF;spacing=5;exitX=1;exitY=0.5;exitDx=0;exitDy=0;" edge="1" parent="1" source="Ek-aGh3pe6eO3Bai1jZO-240" target="Ek-aGh3pe6eO3Bai1jZO-272">
          <mxGeometry relative="1" as="geometry">
            <mxPoint x="995.75" y="712" as="sourcePoint" />
          </mxGeometry>
        </mxCell>
        <mxCell id="Ek-aGh3pe6eO3Bai1jZO-272" value="Як?" style="rounded=1;whiteSpace=wrap;html=1;shadow=0;labelBackgroundColor=none;strokeColor=none;strokeWidth=3;fillColor=#64bbe2;fontFamily=Helvetica;fontSize=14;fontColor=#FFFFFF;align=center;spacing=5;arcSize=7;perimeterSpacing=2;" vertex="1" parent="1">
          <mxGeometry x="1183.5" y="686" width="75" height="60" as="geometry" />
        </mxCell>
        <mxCell id="Ek-aGh3pe6eO3Bai1jZO-273" value="" style="edgeStyle=none;rounded=1;jumpStyle=none;html=1;shadow=0;labelBackgroundColor=none;startArrow=none;startFill=0;jettySize=auto;orthogonalLoop=1;strokeColor=#E85642;strokeWidth=3;fontFamily=Helvetica;fontSize=14;fontColor=#FFFFFF;spacing=5;fontStyle=1;fillColor=#b0e3e6;exitX=0.382;exitY=0.011;exitDx=0;exitDy=0;exitPerimeter=0;" edge="1" parent="1" source="Ek-aGh3pe6eO3Bai1jZO-239" target="Ek-aGh3pe6eO3Bai1jZO-274">
          <mxGeometry relative="1" as="geometry">
            <mxPoint x="402.3587786259541" y="523.5" as="sourcePoint" />
          </mxGeometry>
        </mxCell>
        <mxCell id="Ek-aGh3pe6eO3Bai1jZO-274" value="Що?" style="rounded=1;whiteSpace=wrap;html=1;shadow=0;labelBackgroundColor=none;strokeColor=none;strokeWidth=3;fillColor=#f08e81;fontFamily=Helvetica;fontSize=14;fontColor=#FFFFFF;align=center;spacing=5;fontStyle=0;arcSize=7;perimeterSpacing=2;" vertex="1" parent="1">
          <mxGeometry x="365" y="315" width="64" height="55" as="geometry" />
        </mxCell>
        <mxCell id="Ek-aGh3pe6eO3Bai1jZO-275" value="" style="edgeStyle=none;rounded=1;jumpStyle=none;html=1;shadow=0;labelBackgroundColor=none;startArrow=none;startFill=0;jettySize=auto;orthogonalLoop=1;strokeColor=#E85642;strokeWidth=3;fontFamily=Helvetica;fontSize=14;fontColor=#FFFFFF;spacing=5;fontStyle=1;fillColor=#b0e3e6;exitX=0.03;exitY=0.125;exitDx=0;exitDy=0;exitPerimeter=0;" edge="1" parent="1" source="Ek-aGh3pe6eO3Bai1jZO-239" target="Ek-aGh3pe6eO3Bai1jZO-276">
          <mxGeometry relative="1" as="geometry">
            <mxPoint x="479.9580000000001" y="623.008" as="sourcePoint" />
          </mxGeometry>
        </mxCell>
        <mxCell id="Ek-aGh3pe6eO3Bai1jZO-276" value="Де?" style="rounded=1;whiteSpace=wrap;html=1;shadow=0;labelBackgroundColor=none;strokeColor=none;strokeWidth=3;fillColor=#f08e81;fontFamily=Helvetica;fontSize=14;fontColor=#FFFFFF;align=center;spacing=5;fontStyle=0;arcSize=7;perimeterSpacing=2;" vertex="1" parent="1">
          <mxGeometry x="334" y="433" width="70" height="57" as="geometry" />
        </mxCell>
        <mxCell id="Ek-aGh3pe6eO3Bai1jZO-277" value="" style="edgeStyle=none;rounded=1;jumpStyle=none;html=1;shadow=0;labelBackgroundColor=none;startArrow=none;startFill=0;jettySize=auto;orthogonalLoop=1;strokeColor=#E85642;strokeWidth=3;fontFamily=Helvetica;fontSize=14;fontColor=#FFFFFF;spacing=5;fontStyle=1;fillColor=#b0e3e6;entryX=1;entryY=0.5;entryDx=0;entryDy=0;exitX=0.04;exitY=0.906;exitDx=0;exitDy=0;exitPerimeter=0;" edge="1" parent="1" source="Ek-aGh3pe6eO3Bai1jZO-239" target="Ek-aGh3pe6eO3Bai1jZO-278">
          <mxGeometry relative="1" as="geometry">
            <mxPoint x="513.9580000000001" y="741.008" as="sourcePoint" />
          </mxGeometry>
        </mxCell>
        <mxCell id="Ek-aGh3pe6eO3Bai1jZO-278" value="Коли?" style="rounded=1;whiteSpace=wrap;html=1;shadow=0;labelBackgroundColor=none;strokeColor=none;strokeWidth=3;fillColor=#f08e81;fontFamily=Helvetica;fontSize=14;fontColor=#FFFFFF;align=center;spacing=5;fontStyle=0;arcSize=7;perimeterSpacing=2;" vertex="1" parent="1">
          <mxGeometry x="383" y="585" width="63" height="57" as="geometry" />
        </mxCell>
        <mxCell id="Ek-aGh3pe6eO3Bai1jZO-279" value="" style="edgeStyle=none;rounded=1;jumpStyle=none;html=1;shadow=0;labelBackgroundColor=none;startArrow=none;startFill=0;jettySize=auto;orthogonalLoop=1;strokeColor=#E85642;strokeWidth=3;fontFamily=Helvetica;fontSize=14;fontColor=#FFFFFF;spacing=5;fontStyle=1;fillColor=#b0e3e6;entryX=1;entryY=0;entryDx=0;entryDy=0;" edge="1" parent="1" source="Ek-aGh3pe6eO3Bai1jZO-239" target="Ek-aGh3pe6eO3Bai1jZO-280">
          <mxGeometry relative="1" as="geometry">
            <mxPoint x="555.9580000000001" y="757.008" as="sourcePoint" />
          </mxGeometry>
        </mxCell>
        <mxCell id="Ek-aGh3pe6eO3Bai1jZO-280" value="Як?" style="rounded=1;whiteSpace=wrap;html=1;shadow=0;labelBackgroundColor=none;strokeColor=none;strokeWidth=3;fillColor=#f08e81;fontFamily=Helvetica;fontSize=14;fontColor=#FFFFFF;align=center;spacing=5;fontStyle=0;arcSize=7;perimeterSpacing=2;" vertex="1" parent="1">
          <mxGeometry x="356" y="761.5" width="69" height="57" as="geometry" />
        </mxCell>
        <mxCell id="Ek-aGh3pe6eO3Bai1jZO-324" value="Приходить" style="rounded=1;whiteSpace=wrap;html=1;shadow=0;fillColor=#fae8e6;fontFamily=Helvetica;fontSize=14;fontColor=#000000;align=center;spacing=5;fontStyle=0;arcSize=7;perimeterSpacing=2;direction=south;" vertex="1" parent="1">
          <mxGeometry x="220" y="539.5" width="84" height="60" as="geometry" />
        </mxCell>
        <mxCell id="Ek-aGh3pe6eO3Bai1jZO-327" value="У мозку" style="fontFamily=Helvetica;fontSize=14;" vertex="1" parent="1">
          <mxGeometry x="38" y="432" width="82" height="60" as="geometry" />
        </mxCell>
        <mxCell id="Ek-aGh3pe6eO3Bai1jZO-328" value="На курсах &#xa;підвищення &#xa;кваліфікації" style="fontFamily=Helvetica;fontSize=14;" vertex="1" parent="1">
          <mxGeometry x="44" y="539" width="116" height="60" as="geometry" />
        </mxCell>
        <mxCell id="Ek-aGh3pe6eO3Bai1jZO-329" value="" style="edgeStyle=none;rounded=1;jumpStyle=none;html=1;shadow=0;labelBackgroundColor=none;startArrow=none;startFill=0;jettySize=auto;orthogonalLoop=1;strokeColor=#12AAB5;strokeWidth=3;fontFamily=Helvetica;fontSize=14;fontColor=#FFFFFF;spacing=5;fontStyle=1;fillColor=#b0e3e6;entryX=1;entryY=0.5;entryDx=0;entryDy=0;" edge="1" parent="1" source="Ek-aGh3pe6eO3Bai1jZO-324" target="Ek-aGh3pe6eO3Bai1jZO-328">
          <mxGeometry relative="1" as="geometry">
            <mxPoint x="113" y="646.5" as="sourcePoint" />
            <mxPoint x="97" y="544" as="targetPoint" />
          </mxGeometry>
        </mxCell>
        <mxCell id="Ek-aGh3pe6eO3Bai1jZO-330" value="" style="edgeStyle=none;rounded=1;jumpStyle=none;html=1;shadow=0;labelBackgroundColor=none;startArrow=none;startFill=0;jettySize=auto;orthogonalLoop=1;strokeColor=#12AAB5;strokeWidth=3;fontFamily=Helvetica;fontSize=14;fontColor=#FFFFFF;spacing=5;fontStyle=1;fillColor=#b0e3e6;entryX=1;entryY=0.5;entryDx=0;entryDy=0;exitX=0.5;exitY=1;exitDx=0;exitDy=0;" edge="1" parent="1" source="Ek-aGh3pe6eO3Bai1jZO-339" target="Ek-aGh3pe6eO3Bai1jZO-327">
          <mxGeometry relative="1" as="geometry">
            <mxPoint x="21" y="459.07563025210106" as="sourcePoint" />
            <mxPoint x="115" y="462" as="targetPoint" />
          </mxGeometry>
        </mxCell>
        <mxCell id="Ek-aGh3pe6eO3Bai1jZO-332" value="Обробляється" style="rounded=1;whiteSpace=wrap;html=1;shadow=0;fillColor=#fae8e6;fontFamily=Helvetica;fontSize=14;fontColor=#000000;align=center;spacing=5;fontStyle=0;arcSize=7;perimeterSpacing=2;direction=south;" vertex="1" parent="1">
          <mxGeometry x="224.5" y="649" width="114" height="60" as="geometry" />
        </mxCell>
        <mxCell id="Ek-aGh3pe6eO3Bai1jZO-336" value="У &#xa;вільний час &#xa;від праці" style="fontFamily=Helvetica;fontSize=14;" vertex="1" parent="1">
          <mxGeometry x="61.5" y="654" width="93" height="60" as="geometry" />
        </mxCell>
        <mxCell id="Ek-aGh3pe6eO3Bai1jZO-337" value="" style="edgeStyle=none;rounded=1;jumpStyle=none;html=1;shadow=0;labelBackgroundColor=none;startArrow=none;startFill=0;jettySize=auto;orthogonalLoop=1;strokeColor=#12AAB5;strokeWidth=3;fontFamily=Helvetica;fontSize=14;fontColor=#FFFFFF;spacing=5;fontStyle=1;fillColor=#b0e3e6;entryX=1.008;entryY=0.406;entryDx=0;entryDy=0;entryPerimeter=0;exitX=0.5;exitY=1;exitDx=0;exitDy=0;" edge="1" parent="1" source="Ek-aGh3pe6eO3Bai1jZO-332" target="Ek-aGh3pe6eO3Bai1jZO-336">
          <mxGeometry relative="1" as="geometry">
            <mxPoint x="171.5" y="879.5" as="sourcePoint" />
            <mxPoint x="94.5" y="903.6234567901233" as="targetPoint" />
          </mxGeometry>
        </mxCell>
        <mxCell id="Ek-aGh3pe6eO3Bai1jZO-339" value="Обробляється" style="rounded=1;whiteSpace=wrap;html=1;shadow=0;fillColor=#fae8e6;fontFamily=Helvetica;fontSize=14;fontColor=#000000;align=center;spacing=5;fontStyle=0;arcSize=7;perimeterSpacing=2;direction=south;" vertex="1" parent="1">
          <mxGeometry x="180" y="432" width="106" height="60" as="geometry" />
        </mxCell>
        <mxCell id="Ek-aGh3pe6eO3Bai1jZO-343" value="Виходить" style="rounded=1;whiteSpace=wrap;html=1;shadow=0;fillColor=#fae8e6;fontFamily=Helvetica;fontSize=14;fontColor=#000000;align=center;spacing=5;fontStyle=0;arcSize=7;perimeterSpacing=2;direction=south;" vertex="1" parent="1">
          <mxGeometry x="158" y="310.5" width="84" height="60" as="geometry" />
        </mxCell>
        <mxCell id="Ek-aGh3pe6eO3Bai1jZO-349" value="Підвищення &#xa;навичок &#xa;проф&#xa;спілкування" style="fontFamily=Helvetica;fontSize=14;" vertex="1" parent="1">
          <mxGeometry x="139" y="143" width="120" height="73" as="geometry" />
        </mxCell>
        <mxCell id="Ek-aGh3pe6eO3Bai1jZO-350" value="" style="edgeStyle=none;rounded=1;jumpStyle=none;html=1;shadow=0;labelBackgroundColor=none;startArrow=none;startFill=0;jettySize=auto;orthogonalLoop=1;strokeColor=#12AAB5;strokeWidth=3;fontFamily=Helvetica;fontSize=14;fontColor=#FFFFFF;spacing=5;fontStyle=1;fillColor=#b0e3e6;" edge="1" parent="1" source="Ek-aGh3pe6eO3Bai1jZO-343" target="Ek-aGh3pe6eO3Bai1jZO-349">
          <mxGeometry relative="1" as="geometry">
            <mxPoint x="413" y="270" as="sourcePoint" />
            <mxPoint x="16" y="123" as="targetPoint" />
          </mxGeometry>
        </mxCell>
        <mxCell id="Ek-aGh3pe6eO3Bai1jZO-354" value="Виходить" style="rounded=1;whiteSpace=wrap;html=1;shadow=0;fillColor=#f2f9fa;fontFamily=Helvetica;fontSize=14;fontColor=#000000;align=center;spacing=5;fontStyle=0;arcSize=7;perimeterSpacing=2;" vertex="1" parent="1">
          <mxGeometry x="545.5" y="856" width="84" height="60" as="geometry" />
        </mxCell>
        <mxCell id="Ek-aGh3pe6eO3Bai1jZO-357" value="" style="edgeStyle=none;rounded=1;jumpStyle=none;html=1;shadow=0;labelBackgroundColor=none;startArrow=none;startFill=0;jettySize=auto;orthogonalLoop=1;strokeColor=#12AAB5;strokeWidth=3;fontFamily=Helvetica;fontSize=14;fontColor=#FFFFFF;spacing=5;fontStyle=1;fillColor=#b0e3e6;exitX=0.5;exitY=1;exitDx=0;exitDy=0;" edge="1" parent="1" source="Ek-aGh3pe6eO3Bai1jZO-266" target="Ek-aGh3pe6eO3Bai1jZO-354">
          <mxGeometry relative="1" as="geometry">
            <mxPoint x="302.25" y="794" as="sourcePoint" />
            <mxPoint x="522.8899999999999" y="1229.6234567901233" as="targetPoint" />
          </mxGeometry>
        </mxCell>
        <mxCell id="Ek-aGh3pe6eO3Bai1jZO-361" value="Нормальне &#xa;функціонування &#xa;організму " style="fontFamily=Helvetica;fontSize=14;" vertex="1" parent="1">
          <mxGeometry x="522" y="976" width="131" height="74" as="geometry" />
        </mxCell>
        <mxCell id="Ek-aGh3pe6eO3Bai1jZO-362" value="" style="edgeStyle=none;rounded=1;jumpStyle=none;html=1;shadow=0;labelBackgroundColor=none;startArrow=none;startFill=0;jettySize=auto;orthogonalLoop=1;strokeColor=#12AAB5;strokeWidth=3;fontFamily=Helvetica;fontSize=14;fontColor=#FFFFFF;spacing=5;fontStyle=1;fillColor=#b0e3e6;entryX=0.5;entryY=0;entryDx=0;entryDy=0;exitX=0.5;exitY=1;exitDx=0;exitDy=0;" edge="1" parent="1" source="Ek-aGh3pe6eO3Bai1jZO-354" target="Ek-aGh3pe6eO3Bai1jZO-361">
          <mxGeometry relative="1" as="geometry">
            <mxPoint x="573" y="950" as="sourcePoint" />
            <mxPoint x="536.3199999999999" y="967" as="targetPoint" />
          </mxGeometry>
        </mxCell>
        <mxCell id="Ek-aGh3pe6eO3Bai1jZO-365" value="" style="edgeStyle=none;rounded=1;jumpStyle=none;html=1;shadow=0;labelBackgroundColor=none;startArrow=none;startFill=0;jettySize=auto;orthogonalLoop=1;strokeColor=#12AAB5;strokeWidth=3;fontFamily=Helvetica;fontSize=14;fontColor=#FFFFFF;spacing=5;fontStyle=1;fillColor=#b0e3e6;entryX=0.5;entryY=0;entryDx=0;entryDy=0;exitX=0;exitY=0.5;exitDx=0;exitDy=0;" edge="1" parent="1" source="Ek-aGh3pe6eO3Bai1jZO-276" target="Ek-aGh3pe6eO3Bai1jZO-339">
          <mxGeometry relative="1" as="geometry">
            <mxPoint x="357.37142857142817" y="442.9999999999998" as="sourcePoint" />
            <mxPoint x="338" y="462" as="targetPoint" />
          </mxGeometry>
        </mxCell>
        <mxCell id="Ek-aGh3pe6eO3Bai1jZO-366" value="" style="edgeStyle=none;rounded=1;jumpStyle=none;html=1;shadow=0;labelBackgroundColor=none;startArrow=none;startFill=0;jettySize=auto;orthogonalLoop=1;strokeColor=#12AAB5;strokeWidth=3;fontFamily=Helvetica;fontSize=14;fontColor=#FFFFFF;spacing=5;fontStyle=1;fillColor=#b0e3e6;exitX=0.5;exitY=1;exitDx=0;exitDy=0;entryX=0.5;entryY=0;entryDx=0;entryDy=0;" edge="1" parent="1" source="Ek-aGh3pe6eO3Bai1jZO-276" target="Ek-aGh3pe6eO3Bai1jZO-324">
          <mxGeometry relative="1" as="geometry">
            <mxPoint x="332" y="485" as="sourcePoint" />
            <mxPoint x="270" y="570" as="targetPoint" />
          </mxGeometry>
        </mxCell>
        <mxCell id="Ek-aGh3pe6eO3Bai1jZO-369" value="" style="edgeStyle=none;rounded=1;jumpStyle=none;html=1;shadow=0;labelBackgroundColor=none;startArrow=none;startFill=0;jettySize=auto;orthogonalLoop=1;strokeColor=#12AAB5;strokeWidth=3;fontFamily=Helvetica;fontSize=14;fontColor=#FFFFFF;spacing=5;fontStyle=1;fillColor=#b0e3e6;entryX=0.5;entryY=0;entryDx=0;entryDy=0;exitX=0.5;exitY=1;exitDx=0;exitDy=0;" edge="1" parent="1" source="Ek-aGh3pe6eO3Bai1jZO-278">
          <mxGeometry relative="1" as="geometry">
            <mxPoint x="340" y="676" as="sourcePoint" />
            <mxPoint x="369" y="679.0000000000002" as="targetPoint" />
          </mxGeometry>
        </mxCell>
        <mxCell id="Ek-aGh3pe6eO3Bai1jZO-370" value="Приходить" style="rounded=1;whiteSpace=wrap;html=1;shadow=0;fillColor=#f2f9fa;fontFamily=Helvetica;fontSize=14;fontColor=#000000;align=center;spacing=5;fontStyle=0;arcSize=7;perimeterSpacing=2;" vertex="1" parent="1">
          <mxGeometry x="1181" y="826" width="82" height="60" as="geometry" />
        </mxCell>
        <mxCell id="Ek-aGh3pe6eO3Bai1jZO-373" value="" style="edgeStyle=none;rounded=1;jumpStyle=none;html=1;shadow=0;labelBackgroundColor=none;startArrow=none;startFill=0;jettySize=auto;orthogonalLoop=1;strokeColor=#12AAB5;strokeWidth=3;fontFamily=Helvetica;fontSize=14;fontColor=#FFFFFF;spacing=5;fontStyle=1;fillColor=#b0e3e6;exitX=0.5;exitY=1;exitDx=0;exitDy=0;entryX=0.5;entryY=0;entryDx=0;entryDy=0;" edge="1" parent="1" source="Ek-aGh3pe6eO3Bai1jZO-272" target="Ek-aGh3pe6eO3Bai1jZO-370">
          <mxGeometry relative="1" as="geometry">
            <mxPoint x="1316.4999999999995" y="928" as="sourcePoint" />
            <mxPoint x="1562.39" y="1049.5" as="targetPoint" />
          </mxGeometry>
        </mxCell>
        <mxCell id="Ek-aGh3pe6eO3Bai1jZO-376" value="Завдяки &#xa;здоровому &#xa;способу життя " style="fontFamily=Helvetica;fontSize=14;" vertex="1" parent="1">
          <mxGeometry x="1162" y="960" width="120" height="60" as="geometry" />
        </mxCell>
        <mxCell id="Ek-aGh3pe6eO3Bai1jZO-377" value="" style="edgeStyle=none;rounded=1;jumpStyle=none;html=1;shadow=0;labelBackgroundColor=none;startArrow=none;startFill=0;jettySize=auto;orthogonalLoop=1;strokeColor=#12AAB5;strokeWidth=3;fontFamily=Helvetica;fontSize=14;fontColor=#FFFFFF;spacing=5;fontStyle=1;fillColor=#b0e3e6;entryX=0.5;entryY=0;entryDx=0;entryDy=0;" edge="1" parent="1" source="Ek-aGh3pe6eO3Bai1jZO-370" target="Ek-aGh3pe6eO3Bai1jZO-376">
          <mxGeometry relative="1" as="geometry">
            <mxPoint x="1732.89" y="1149.5" as="sourcePoint" />
            <mxPoint x="1724.39" y="1097.5" as="targetPoint" />
          </mxGeometry>
        </mxCell>
        <mxCell id="Ek-aGh3pe6eO3Bai1jZO-386" value="" style="edgeStyle=none;rounded=1;jumpStyle=none;html=1;shadow=0;labelBackgroundColor=none;startArrow=none;startFill=0;jettySize=auto;orthogonalLoop=1;strokeColor=#12AAB5;strokeWidth=3;fontFamily=Helvetica;fontSize=14;fontColor=#FFFFFF;spacing=5;fontStyle=1;fillColor=#b0e3e6;exitX=0.5;exitY=1;exitDx=0;exitDy=0;entryX=0.5;entryY=0;entryDx=0;entryDy=0;" edge="1" parent="1" source="Ek-aGh3pe6eO3Bai1jZO-270" target="Ek-aGh3pe6eO3Bai1jZO-395">
          <mxGeometry relative="1" as="geometry">
            <mxPoint x="852.25" y="866.9999999999998" as="sourcePoint" />
            <mxPoint x="998.0825086139821" y="1352.5" as="targetPoint" />
          </mxGeometry>
        </mxCell>
        <mxCell id="Ek-aGh3pe6eO3Bai1jZO-391" value="Постійно" style="fontFamily=Helvetica;fontSize=14;" vertex="1" parent="1">
          <mxGeometry x="881" y="1050" width="109" height="60" as="geometry" />
        </mxCell>
        <mxCell id="Ek-aGh3pe6eO3Bai1jZO-395" value="Обробляється" style="rounded=1;whiteSpace=wrap;html=1;shadow=0;fillColor=#f2f9fa;fontFamily=Helvetica;fontSize=14;fontColor=#000000;align=center;spacing=5;fontStyle=0;arcSize=7;perimeterSpacing=2;" vertex="1" parent="1">
          <mxGeometry x="881" y="916" width="106" height="60" as="geometry" />
        </mxCell>
        <mxCell id="Ek-aGh3pe6eO3Bai1jZO-405" value="" style="edgeStyle=none;rounded=1;jumpStyle=none;html=1;shadow=0;labelBackgroundColor=none;startArrow=none;startFill=0;jettySize=auto;orthogonalLoop=1;strokeColor=#12AAB5;strokeWidth=3;fontFamily=Helvetica;fontSize=14;fontColor=#FFFFFF;spacing=5;fontStyle=1;fillColor=#b0e3e6;entryX=0.5;entryY=0;entryDx=0;entryDy=0;" edge="1" parent="1" source="Ek-aGh3pe6eO3Bai1jZO-395" target="Ek-aGh3pe6eO3Bai1jZO-391">
          <mxGeometry relative="1" as="geometry">
            <mxPoint x="1090.39" y="1428.5" as="sourcePoint" />
            <mxPoint x="936" y="1050" as="targetPoint" />
          </mxGeometry>
        </mxCell>
        <mxCell id="Ek-aGh3pe6eO3Bai1jZO-406" value="Приходить" style="rounded=1;whiteSpace=wrap;html=1;shadow=0;fillColor=#fae8e6;fontFamily=Helvetica;fontSize=14;fontColor=#000000;align=center;spacing=5;fontStyle=0;arcSize=7;perimeterSpacing=2;direction=south;" vertex="1" parent="1">
          <mxGeometry x="349.5" y="886" width="82" height="60" as="geometry" />
        </mxCell>
        <mxCell id="Ek-aGh3pe6eO3Bai1jZO-410" value="За допомогою &#xa;мислених &#xa;процесів" style="fontFamily=Helvetica;fontSize=14;" vertex="1" parent="1">
          <mxGeometry x="126" y="970" width="114" height="60" as="geometry" />
        </mxCell>
        <mxCell id="Ek-aGh3pe6eO3Bai1jZO-413" value="" style="edgeStyle=none;rounded=1;jumpStyle=none;html=1;shadow=0;labelBackgroundColor=none;startArrow=none;startFill=0;jettySize=auto;orthogonalLoop=1;strokeColor=#12AAB5;strokeWidth=3;fontFamily=Helvetica;fontSize=14;fontColor=#FFFFFF;spacing=5;fontStyle=1;fillColor=#b0e3e6;entryX=0.5;entryY=0;entryDx=0;entryDy=0;exitX=1;exitY=0.5;exitDx=0;exitDy=0;" edge="1" parent="1" source="Ek-aGh3pe6eO3Bai1jZO-414" target="Ek-aGh3pe6eO3Bai1jZO-410">
          <mxGeometry relative="1" as="geometry">
            <mxPoint x="-76.99999999999955" y="910.0178571428571" as="sourcePoint" />
            <mxPoint x="76" y="1107.5" as="targetPoint" />
          </mxGeometry>
        </mxCell>
        <mxCell id="Ek-aGh3pe6eO3Bai1jZO-414" value="Обробляється" style="rounded=1;whiteSpace=wrap;html=1;shadow=0;fillColor=#fae8e6;fontFamily=Helvetica;fontSize=14;fontColor=#000000;align=center;spacing=5;fontStyle=0;arcSize=7;perimeterSpacing=2;direction=south;" vertex="1" parent="1">
          <mxGeometry x="130" y="760" width="106" height="60" as="geometry" />
        </mxCell>
        <mxCell id="Ek-aGh3pe6eO3Bai1jZO-415" value="" style="edgeStyle=none;rounded=1;jumpStyle=none;html=1;shadow=0;labelBackgroundColor=none;startArrow=none;startFill=0;jettySize=auto;orthogonalLoop=1;strokeColor=#12AAB5;strokeWidth=3;fontFamily=Helvetica;fontSize=14;fontColor=#FFFFFF;spacing=5;fontStyle=1;fillColor=#b0e3e6;exitX=0.5;exitY=1;exitDx=0;exitDy=0;" edge="1" parent="1" source="Ek-aGh3pe6eO3Bai1jZO-280" target="Ek-aGh3pe6eO3Bai1jZO-406">
          <mxGeometry relative="1" as="geometry">
            <mxPoint x="316" y="836.8628571428571" as="sourcePoint" />
            <mxPoint x="296" y="642.9999999999998" as="targetPoint" />
          </mxGeometry>
        </mxCell>
        <mxCell id="Ek-aGh3pe6eO3Bai1jZO-416" value="" style="edgeStyle=none;rounded=1;jumpStyle=none;html=1;shadow=0;labelBackgroundColor=none;startArrow=none;startFill=0;jettySize=auto;orthogonalLoop=1;strokeColor=#12AAB5;strokeWidth=3;fontFamily=Helvetica;fontSize=14;fontColor=#FFFFFF;spacing=5;fontStyle=1;fillColor=#b0e3e6;" edge="1" parent="1" source="Ek-aGh3pe6eO3Bai1jZO-280" target="Ek-aGh3pe6eO3Bai1jZO-414">
          <mxGeometry relative="1" as="geometry">
            <mxPoint x="182" y="871" as="sourcePoint" />
            <mxPoint x="172" y="652.9999999999998" as="targetPoint" />
          </mxGeometry>
        </mxCell>
        <mxCell id="Ek-aGh3pe6eO3Bai1jZO-418" value="" style="edgeStyle=none;rounded=1;jumpStyle=none;html=1;shadow=0;labelBackgroundColor=none;startArrow=none;startFill=0;jettySize=auto;orthogonalLoop=1;strokeColor=#12AAB5;strokeWidth=3;fontFamily=Helvetica;fontSize=14;fontColor=#FFFFFF;spacing=5;fontStyle=1;fillColor=#b0e3e6;exitX=0;exitY=0.5;exitDx=0;exitDy=0;entryX=0.5;entryY=0;entryDx=0;entryDy=0;" edge="1" parent="1" source="Ek-aGh3pe6eO3Bai1jZO-274" target="Ek-aGh3pe6eO3Bai1jZO-343">
          <mxGeometry relative="1" as="geometry">
            <mxPoint x="239.99999999999955" y="303" as="sourcePoint" />
            <mxPoint x="294" y="276" as="targetPoint" />
          </mxGeometry>
        </mxCell>
        <mxCell id="Ek-aGh3pe6eO3Bai1jZO-421" value="Виходить" style="rounded=1;whiteSpace=wrap;html=1;shadow=0;fillColor=#fcf6d7;fontFamily=Helvetica;fontSize=14;fontColor=#000000;align=center;spacing=5;fontStyle=0;arcSize=7;perimeterSpacing=2;" vertex="1" parent="1">
          <mxGeometry x="592" y="238" width="84" height="60" as="geometry" />
        </mxCell>
        <mxCell id="Ek-aGh3pe6eO3Bai1jZO-427" value="Вивчення &#xa;нового " style="fontFamily=Helvetica;fontSize=14;" vertex="1" parent="1">
          <mxGeometry x="881" y="238" width="82" height="60" as="geometry" />
        </mxCell>
        <mxCell id="Ek-aGh3pe6eO3Bai1jZO-428" value="" style="edgeStyle=none;rounded=1;jumpStyle=none;html=1;shadow=0;labelBackgroundColor=none;startArrow=none;startFill=0;jettySize=auto;orthogonalLoop=1;strokeColor=#12AAB5;strokeWidth=3;fontFamily=Helvetica;fontSize=14;fontColor=#FFFFFF;spacing=5;fontStyle=1;fillColor=#b0e3e6;" edge="1" parent="1" source="Ek-aGh3pe6eO3Bai1jZO-421" target="Ek-aGh3pe6eO3Bai1jZO-427">
          <mxGeometry relative="1" as="geometry">
            <mxPoint x="834.5" y="288.5" as="sourcePoint" />
            <mxPoint x="437.5" y="141.5" as="targetPoint" />
          </mxGeometry>
        </mxCell>
        <mxCell id="Ek-aGh3pe6eO3Bai1jZO-430" value="" style="edgeStyle=none;rounded=1;jumpStyle=none;html=1;shadow=0;labelBackgroundColor=none;startArrow=none;startFill=0;jettySize=auto;orthogonalLoop=1;strokeColor=#12AAB5;strokeWidth=3;fontFamily=Helvetica;fontSize=14;fontColor=#FFFFFF;spacing=5;fontStyle=1;fillColor=#b0e3e6;entryX=0.5;entryY=1;entryDx=0;entryDy=0;exitX=0.5;exitY=0;exitDx=0;exitDy=0;" edge="1" parent="1" source="Ek-aGh3pe6eO3Bai1jZO-261" target="Ek-aGh3pe6eO3Bai1jZO-421">
          <mxGeometry relative="1" as="geometry">
            <mxPoint x="740" y="330" as="sourcePoint" />
            <mxPoint x="784.5" y="294.5" as="targetPoint" />
          </mxGeometry>
        </mxCell>
        <mxCell id="Ek-aGh3pe6eO3Bai1jZO-471" value="" style="edgeStyle=none;rounded=1;jumpStyle=none;html=1;shadow=0;labelBackgroundColor=none;startArrow=none;startFill=0;jettySize=auto;orthogonalLoop=1;strokeColor=#12AAB5;strokeWidth=3;fontFamily=Helvetica;fontSize=14;fontColor=#FFFFFF;spacing=5;fontStyle=1;fillColor=#b0e3e6;exitX=0.973;exitY=0.409;exitDx=0;exitDy=0;exitPerimeter=0;entryX=0.5;entryY=0;entryDx=0;entryDy=0;" edge="1" parent="1" source="Ek-aGh3pe6eO3Bai1jZO-406" target="Ek-aGh3pe6eO3Bai1jZO-472">
          <mxGeometry relative="1" as="geometry">
            <mxPoint x="291" y="689.9999999999998" as="sourcePoint" />
            <mxPoint x="391" y="970" as="targetPoint" />
          </mxGeometry>
        </mxCell>
        <mxCell id="Ek-aGh3pe6eO3Bai1jZO-472" value="Вивченням &#xa;термінів" style="fontFamily=Helvetica;fontSize=14;" vertex="1" parent="1">
          <mxGeometry x="343" y="1002" width="114" height="60" as="geometry" />
        </mxCell>
      </root>
    </mxGraphModel>
  </diagram>
</mxfile>
